<?xml version="1.0" encoding="UTF-8" standalone="no"?>
<svg
   xml:space="preserve"
   version="1.1"
   style="image-rendering:optimizeQuality;shape-rendering:geometricPrecision;text-rendering:geometricPrecision"
   viewBox="0 0 63.999997 64.000001"
   x="0px"
   y="0px"
   fill-rule="evenodd"
   clip-rule="evenodd"
   id="svg14"
   sodipodi:docname="independence.svg"
   width="64"
   height="64"
   inkscape:version="1.1.2 (0a00cf5339, 2022-02-04)"
   xmlns:inkscape="http://www.inkscape.org/namespaces/inkscape"
   xmlns:sodipodi="http://sodipodi.sourceforge.net/DTD/sodipodi-0.dtd"
   xmlns="http://www.w3.org/2000/svg"
   xmlns:svg="http://www.w3.org/2000/svg"><sodipodi:namedview
     id="namedview16"
     pagecolor="#ffffff"
     bordercolor="#666666"
     borderopacity="1.0"
     inkscape:pageshadow="2"
     inkscape:pageopacity="0.0"
     inkscape:pagecheckerboard="0"
     showgrid="false"
     inkscape:zoom="2.6341555"
     inkscape:cx="-36.634132"
     inkscape:cy="3.2268407"
     inkscape:window-width="1621"
     inkscape:window-height="752"
     inkscape:window-x="172"
     inkscape:window-y="122"
     inkscape:window-maximized="0"
     inkscape:current-layer="g1262"
     width="64px"
     fit-margin-top="0"
     fit-margin-left="0"
     fit-margin-right="0"
     fit-margin-bottom="0"
     height="64px" /><defs
     id="defs4"><style
       type="text/css"
       id="style2">
   
    .fil0 {fill:black}
   
  </style></defs><g
     id="g1262"><g
       id="g1265"><path
         class="fil0"
         d="m 31.463618,6.299272 c 8.76,0 15.85,7.1 15.85,15.85 0,3.82 -1.37,7.49 -3.87,10.37 l 5.45,20.35 c 0.16,0.59 -0.56,1.02 -1,0.61 l -7.3,-6.65 -3.63,9.61 c -0.21,0.56 -1.01,0.51 -1.16,-0.06 l -3.5,-13.08 -3.43,12.8 c -0.15,0.58 -0.97,0.61 -1.17,0.04 l -3.63,-9.59 -7.3,6.65 c -0.45,0.41 -1.16,-0.03 -1,-0.62 l 5.01,-18.71 c -3.31,-3.01 -5.18,-7.25 -5.18,-11.72 0,-8.76 7.1,-15.85 15.85,-15.85 z m 0.62,5.02 2.17,6.74 7.08,-0.01 c 0.59,0 0.83,0.76 0.36,1.11 l -5.73,4.15 2.2,6.73 c 0.19,0.59 -0.51,1.05 -0.98,0.65 l -5.68,-4.15 -5.72,4.17 c -0.48,0.35 -1.12,-0.12 -0.94,-0.68 l 2.2,-6.73 -5.73,-4.15 c -0.5,-0.36 -0.21,-1.15 0.4,-1.11 l 7.04,0.01 2.18,-6.74 c 0.18,-0.57 0.98,-0.56 1.17,0 z"
         id="path6"
         style="fill:#ffffff;fill-opacity:1;stroke:#000000;stroke-opacity:1" /></g></g></svg>
