<?xml version="1.0" encoding="UTF-8" standalone="no"?>
<svg
   version="1.1"
   x="0px"
   y="0px"
   viewBox="0 0 80.4925 80.662003"
   xml:space="preserve"
   id="svg8"
   sodipodi:docname="tolerance.svg"
   inkscape:version="1.1.2 (0a00cf5339, 2022-02-04)"
   width="80.4925"
   height="80.662003"
   xmlns:inkscape="http://www.inkscape.org/namespaces/inkscape"
   xmlns:sodipodi="http://sodipodi.sourceforge.net/DTD/sodipodi-0.dtd"
   xmlns="http://www.w3.org/2000/svg"
   xmlns:svg="http://www.w3.org/2000/svg"><defs
     id="defs12" /><sodipodi:namedview
     id="namedview10"
     pagecolor="#ffffff"
     bordercolor="#666666"
     borderopacity="1.0"
     inkscape:pageshadow="2"
     inkscape:pageopacity="0.0"
     inkscape:pagecheckerboard="0"
     showgrid="false"
     inkscape:zoom="8"
     inkscape:cx="28.8125"
     inkscape:cy="28.25"
     inkscape:window-width="1920"
     inkscape:window-height="1043"
     inkscape:window-x="0"
     inkscape:window-y="0"
     inkscape:window-maximized="1"
     inkscape:current-layer="layer2" /><g
     inkscape:groupmode="layer"
     id="layer2"
     inkscape:label="Layer 2"
     style="display:inline"><ellipse
       style="fill:#ffffff;stroke:#ffffff;stroke-width:0.932991;stroke-linecap:round;stroke-linejoin:round;stroke-miterlimit:4;stroke-dasharray:none;stroke-dashoffset:0;stroke-opacity:1;fill-opacity:1"
       id="path977"
       cx="11.167701"
       cy="68.856606"
       rx="9.7905045"
       ry="10.543634" /><path
       style="fill:#ffffff;stroke:#000000;stroke-width:1px;stroke-linecap:butt;stroke-linejoin:miter;stroke-opacity:1;fill-opacity:1"
       d="m 13.886541,44.483139 2.725841,2.383524 -1.515711,6.322956 11.99447,4.014307 13.199287,15.257309 8.944023,-9.137062 6.78524,1.916641 7.023041,-17.309486 8.028359,-8.69133 6.639373,-8.049095 1.103119,-9.973782 L 74.252395,9.5306091 67.928085,3.7504082 57.241524,2.2355041 49.571991,3.6419639 42.546,7.422 36.03,5.358 25.502685,2.2920875 10.281883,4.6823044 3.2032394,14.698654 2.3464012,28.987465 Z"
       id="path1226" /></g><g
     inkscape:groupmode="layer"
     id="layer1"
     inkscape:label="Layer 1"
     style="display:inline"
     sodipodi:insensitive="true"><path
       d="M 74.142,6.745 C 70.011,2.396 64.514,0 58.662,0 58.66,0 58.658,0 58.656,0 52.807,0.002 47.313,2.397 43.189,6.745 L 42.546,7.422 36.03,5.358 C 32.104,1.893 27.191,0.002 21.997,0.002 16.145,0.002 10.648,2.396 6.52,6.744 -1.948,15.663 -1.947,30.175 6.522,39.092 l 8.059,8.488 -1.62,5.116 c -0.281,0.885 0.209,1.829 1.094,2.109 l 10.562,3.345 14.495,15.267 c 0.317,0.333 0.757,0.523 1.219,0.523 0.461,0 0.901,-0.19 1.218,-0.523 l 7.23,-7.615 3.725,1.18 c 0.504,0.16 1.016,0.237 1.518,0.237 2.14,0 4.13,-1.375 4.809,-3.52 L 62.862,50.969 74.138,39.093 C 82.61,30.177 82.61,15.665 74.142,6.745 Z m -8.959,36.902 6.841,-21.601 c 0.407,-1.283 0.289,-2.649 -0.332,-3.843 -0.62,-1.196 -1.668,-2.077 -2.952,-2.484 L 46.128,8.557 c 3.421,-3.352 7.841,-5.194 12.53,-5.195 0.002,0 0.003,0 0.005,0 4.921,0 9.553,2.023 13.043,5.698 7.256,7.643 7.255,20.079 -0.002,27.72 z m -7.608,12.893 -1.946,6.145 c -0.28,0.883 -1.226,1.371 -2.11,1.096 l -2.167,-0.686 -1.781,-0.564 -1.782,-0.564 -21.332,-6.756 -3.314,-1.049 -3.313,-1.049 -3.159,-1 0.552,-1.745 0.58,-1.83 0.58,-1.83 12.495,-39.456 3.437,1.089 3.371,1.067 4.067,1.288 1.783,0.564 24.19,7.66 c 0.428,0.136 0.777,0.43 0.984,0.829 0.207,0.398 0.246,0.853 0.111,1.281 l -8.926,28.185 -1.159,3.662 z M 40.331,69.821 31.243,60.25 45.216,64.675 Z M 21.997,3.364 c 2.16,0 4.265,0.391 6.241,1.139 -0.019,0.045 -0.042,0.086 -0.057,0.133 L 15.74,43.922 8.959,36.78 C 1.701,29.138 1.701,16.703 8.957,9.06 12.444,5.386 17.075,3.364 21.997,3.364 Z m 37.797,18.334 c -0.227,0.716 -0.888,1.174 -1.601,1.174 -0.168,0 -0.34,-0.026 -0.508,-0.08 L 38.461,16.703 c -0.886,-0.279 -1.376,-1.224 -1.095,-2.109 0.254,-0.803 1.056,-1.278 1.862,-1.147 0.083,0.013 0.165,0.026 0.247,0.053 l 1.053,0.334 18.171,5.754 c 0.886,0.281 1.376,1.225 1.095,2.11 z m -12.736,1.256 c -4.278,-1.357 -8.83,-0.964 -12.813,1.104 -3.985,2.067 -6.924,5.563 -8.279,9.843 -1.107,3.492 -1.004,7.081 0.066,10.319 0.018,0.054 0.034,0.109 0.053,0.163 1.667,4.881 5.545,8.938 10.828,10.612 1.673,0.53 3.386,0.792 5.091,0.792 2.659,0 5.295,-0.637 7.722,-1.897 3.984,-2.068 6.924,-5.563 8.279,-9.842 1.355,-4.279 0.963,-8.83 -1.104,-12.814 -2.068,-3.985 -5.563,-6.926 -9.843,-8.28 z m 3.915,26.003 c -0.599,-0.467 -1.264,-0.925 -1.984,-1.371 0.714,-1.229 1.359,-2.577 1.909,-4.027 l 3.286,1.041 c -0.767,1.668 -1.857,3.142 -3.211,4.357 z m -5.245,2.932 c 0.468,-0.466 0.923,-0.975 1.364,-1.524 0.329,0.201 0.646,0.405 0.945,0.609 -0.749,0.378 -1.521,0.685 -2.309,0.915 z M 28.765,36.55 l 3.294,1.043 c -0.378,1.481 -0.63,2.957 -0.756,4.392 -0.848,-0.05 -1.658,-0.058 -2.419,-0.021 -0.401,-1.742 -0.457,-3.58 -0.119,-5.414 z m 4.231,-7.559 c 0.6,0.468 1.266,0.926 1.987,1.373 -0.724,1.245 -1.367,2.596 -1.91,4.025 l -3.287,-1.041 c 0.766,-1.669 1.856,-3.142 3.21,-4.357 z m 19.717,3.608 c -0.043,-0.7 -0.122,-1.38 -0.236,-2.037 0.514,0.644 0.966,1.343 1.362,2.084 -0.364,-0.006 -0.74,-0.022 -1.126,-0.047 z m -4.014,6.739 -4.605,-1.459 1.025,-3.237 c 1.439,0.398 2.852,0.711 4.212,0.937 -0.102,1.22 -0.316,2.483 -0.632,3.759 z m -2.663,6.638 c -1.241,-0.597 -2.577,-1.155 -3.981,-1.658 l 1.025,-3.236 4.605,1.459 c -0.488,1.257 -1.044,2.409 -1.649,3.435 z m -10.765,-7.366 4.605,1.458 -1.025,3.235 c -1.438,-0.398 -2.852,-0.71 -4.212,-0.936 0.101,-1.219 0.316,-2.481 0.632,-3.757 z m 2.66,-6.639 c 1.242,0.598 2.578,1.156 3.984,1.658 l -1.025,3.236 -4.605,-1.459 c 0.475,-1.224 1.027,-2.38 1.646,-3.435 z m 4.999,-1.547 c -1.052,-0.381 -2.065,-0.796 -3.017,-1.235 0.294,-0.339 0.594,-0.662 0.903,-0.959 1.18,-1.133 2.378,-1.843 3.473,-2.096 z m -5.094,16.085 -1.36,4.293 c -0.749,-0.837 -1.319,-2.11 -1.632,-3.717 -0.082,-0.42 -0.141,-0.857 -0.186,-1.303 1.032,0.189 2.099,0.432 3.178,0.727 z m 3.203,1.014 c 1.05,0.38 2.06,0.794 3.01,1.232 -1.456,1.667 -2.997,2.713 -4.364,3.043 z m 5.095,-16.085 1.36,-4.292 c 0.749,0.837 1.318,2.11 1.631,3.716 0.083,0.42 0.141,0.857 0.186,1.302 -1.031,-0.188 -2.098,-0.431 -3.177,-0.726 z m -7.892,-5.377 c -0.47,0.47 -0.924,0.979 -1.36,1.524 -0.332,-0.202 -0.649,-0.407 -0.95,-0.612 0.749,-0.377 1.521,-0.681 2.31,-0.912 z m -6.985,19.287 c 0.043,0.694 0.121,1.368 0.234,2.02 -0.515,-0.647 -0.968,-1.339 -1.356,-2.066 0.361,0.005 0.736,0.021 1.122,0.046 z m 20.654,-4.993 c 0.378,-1.482 0.63,-2.957 0.756,-4.393 0.488,0.029 0.969,0.048 1.43,0.048 0.343,0 0.671,-0.014 0.998,-0.031 0.408,1.774 0.447,3.611 0.112,5.419 z M 11.763,57.136 C 5.277,57.136 0,62.413 0,68.899 c 0,6.487 5.277,11.763 11.763,11.763 6.486,0 11.763,-5.277 11.763,-11.763 0,-6.485 -5.277,-11.763 -11.763,-11.763 z m 0,20.166 c -4.633,0 -8.402,-3.769 -8.402,-8.402 0,-4.633 3.77,-8.402 8.402,-8.402 2.567,0 4.865,1.16 6.408,2.98 l -2.015,2.015 -3.972,3.973 -1.673,-1.673 -0.5,-0.5 c -0.656,-0.657 -1.72,-0.657 -2.376,0 -0.657,0.656 -0.657,1.72 0,2.377 l 3.361,3.361 c 0.328,0.328 0.758,0.493 1.188,0.493 0.43,0 0.86,-0.164 1.188,-0.493 l 6.459,-6.459 c 0.215,0.741 0.336,1.521 0.336,2.33 -0.002,4.631 -3.772,8.4 -8.404,8.4 z"
       id="path2"
       style="fill:#000000;fill-opacity:1" /></g></svg>
